<svg width="17" height="10" viewBox="0 0 17 10" fill="none" xmlns="http://www.w3.org/2000/svg">
<path d="M14.7886 8.95492L8.24782 2.41421L1.70711 8.95492C1.65829 9.00372 1.60569 9.04652 1.55024 9.08312C1.16208 9.33942 0.634596 9.29662 0.292896 8.95492C0.048816 8.71092 -0.042714 8.37202 0.018306 8.05682C0.054916 7.86772 0.146446 7.68722 0.292896 7.54072L7.54072 0.29289C7.72832 0.10535 7.98262 0 8.24782 0C8.51302 0 8.76742 0.10535 8.95492 0.29289L16.2028 7.54072C16.5933 7.93122 16.5933 8.56442 16.2028 8.95492C15.8123 9.34552 15.1791 9.34552 14.7886 8.95492Z" fill="#7E7E7E"/>
</svg>
