<svg width="19" height="14" viewBox="0 0 19 14" fill="none" xmlns="http://www.w3.org/2000/svg">
<path d="M18.5187 1.94096C18.8405 1.45675 18.7891 0.797237 18.3632 0.368807C17.8766 -0.120833 17.0851 -0.123233 16.5955 0.363437L6.34023 10.5565L2.13097 6.37495C1.64122 5.88835 0.849769 5.89095 0.363219 6.38075C0.128939 6.61655 0.00806938 6.92235 0.000389377 7.23035C-0.000150623 7.25215 -0.000130528 7.27395 0.000459472 7.29575C0.00886947 7.60555 0.131799 7.91285 0.369019 8.14845L5.45947 13.2055C5.94704 13.6899 6.7342 13.6898 7.22165 13.2053L18.3579 2.13657C18.4191 2.07573 18.4727 2.01014 18.5187 1.94096Z" fill="#929292"/>
</svg>
