<svg width="19" height="21" viewBox="0 0 19 21" fill="none" xmlns="http://www.w3.org/2000/svg">
<path fill-rule="evenodd" clip-rule="evenodd" d="M12 0C13.1046 0 14 0.89543 14 2V14C14 15.1046 13.1046 16 12 16H2C0.89543 16 0 15.1046 0 14V2C0 0.89543 0.89543 0 2 0H12ZM2.5 2.5H11.5V13.5H2.5V2.5Z" fill="#929292"/>
<path d="M4.25 19.25C4.25 18.5596 4.80964 18 5.5 18H14.25C15.2165 18 16 17.2165 16 16.25V5.5C16 4.80965 16.5596 4.25 17.25 4.25C17.9404 4.25 18.5 4.80965 18.5 5.5V16.25C18.5 18.5972 16.5972 20.5 14.25 20.5H5.5C4.80964 20.5 4.25 19.9404 4.25 19.25Z" fill="#929292"/>
</svg>
