<svg width="19" height="18" viewBox="0 0 19 18" fill="none" xmlns="http://www.w3.org/2000/svg">
<path d="M9.00002 16C5.13401 16 2 12.866 2 9C2 5.13401 5.13401 2 9.00002 2C11.7924 2 14.203 3.6351 15.3264 6.0001H12.8C12.2477 6.0001 11.8 6.44781 11.8 7.0001C11.8 7.5524 12.2477 8.0001 12.8 8.0001H17.8C18.0652 8.0001 18.3196 7.8947 18.5071 7.7072C18.6946 7.5197 18.8 7.2653 18.8 7.0001V2.0001C18.8 1.44781 18.3523 1.0001 17.8 1.0001C17.2477 1.0001 16.8 1.44781 16.8 2.0001V4.50699C15.2448 1.81303 12.3341 0 9.00002 0C4.02944 0 0 4.02944 0 9C0 13.9706 4.02944 18 9.00002 18C12.8442 18 16.1255 15.5898 17.4152 12.1981C17.6432 11.5984 17.1662 11 16.5246 11H16.4558C16.0134 11 15.6303 11.294 15.4594 11.7021C14.4021 14.2265 11.9082 16 9.00002 16Z" fill="#4A7DFF"/>
</svg>
